<?xml version="1.0" standalone="no"?>
<!DOCTYPE svg PUBLIC "-//W3C//DTD SVG 20010904//EN"
 "http://www.w3.org/TR/2001/REC-SVG-20010904/DTD/svg10.dtd">
<svg version="1.0" xmlns="http://www.w3.org/2000/svg"
 width="256.000000pt" height="256.000000pt" viewBox="0 0 256.000000 256.000000"
 preserveAspectRatio="xMidYMid meet">
<metadata>
Created by potrace 1.16, written by Peter Selinger 2001-2019
</metadata>
<g transform="translate(0.000000,256.000000) scale(0.100000,-0.100000)"
fill="#000000" stroke="none">
<path d="M0 1280 l0 -1280 1280 0 1280 0 0 1280 0 1280 -1280 0 -1280 0 0
-1280z m517 944 c-3 -3 -14 -1 -25 5 -13 7 -22 7 -30 -1 -20 -20 -25 0 -5 25
l18 25 24 -24 c13 -14 21 -27 18 -30z m331 0 c-4 -3 -15 -1 -25 4 -12 7 -25 7
-36 1 -23 -13 -23 5 1 30 17 18 18 18 41 -5 14 -13 22 -26 19 -30z m872 46 c0
-5 22 -21 50 -35 27 -14 54 -34 60 -44 5 -11 10 -72 10 -135 l0 -115 -132 2
c-103 2 -132 5 -136 16 -3 10 0 12 13 7 27 -10 35 10 35 87 0 38 4 67 10 67 6
0 10 -33 10 -80 l0 -80 70 0 70 0 0 80 c0 100 18 106 22 8 4 -108 21 -88 19
22 -2 97 -16 140 -46 140 -7 0 -16 -9 -20 -20 -5 -16 -9 -18 -26 -7 -14 9 -23
9 -38 0 -16 -10 -20 -8 -30 14 l-12 26 -25 -25 c-23 -23 -26 -33 -27 -118 -2
-68 -6 -95 -15 -98 -11 -3 -13 15 -10 96 3 114 12 130 85 163 24 11 43 24 43
29 0 6 5 10 10 10 6 0 10 -4 10 -10z m351 -43 c-7 -7 -15 -6 -25 2 -10 8 -16
9 -21 1 -3 -6 -11 -8 -16 -5 -5 4 -1 17 8 30 l18 23 23 -21 c14 -13 19 -24 13
-30z m-934 18 c2 -5 -10 -10 -27 -10 -18 0 -30 5 -30 13 0 16 52 13 57 -3z
m243 0 c16 -19 34 -19 50 0 10 12 16 13 24 5 8 -8 5 -17 -13 -31 -22 -18 -23
-22 -14 -83 7 -49 6 -68 -4 -82 -12 -16 -14 -16 -31 -1 -16 15 -17 24 -9 81 8
59 7 66 -12 85 -22 22 -27 41 -12 41 5 0 14 -7 21 -15z m639 -102 c1 -7 -3
-13 -7 -13 -19 0 -32 27 -31 65 l0 40 19 -40 c10 -22 19 -46 19 -52z m-1600
35 c12 -48 46 -108 60 -108 14 0 47 58 62 108 7 23 15 42 19 42 4 0 19 -12 34
-26 24 -25 26 -33 26 -120 0 -77 -3 -94 -15 -94 -12 0 -15 14 -15 70 0 56 -3
70 -15 70 -12 0 -15 -17 -15 -90 l0 -90 -80 0 -80 0 0 34 c0 62 -13 156 -21
156 -5 0 -9 -34 -9 -75 0 -60 -3 -75 -15 -75 -12 0 -15 17 -15 95 0 88 2 98
25 120 33 34 41 32 54 -17z m339 12 c34 -46 80 -38 111 18 9 16 12 15 37 -4
46 -34 52 -51 26 -76 -19 -20 -24 -21 -32 -8 -7 10 -10 -10 -11 -65 -1 -44 -1
-88 0 -97 2 -16 -8 -18 -78 -18 l-81 0 0 95 c0 52 -4 95 -9 95 -5 0 -11 -6
-14 -12 -3 -9 -11 -4 -25 12 l-21 25 32 33 c17 17 34 32 37 32 3 0 16 -13 28
-30z m1198 -2 c-5 -26 -1 -37 20 -59 21 -22 24 -30 15 -47 -6 -12 -11 -48 -11
-81 0 -34 -4 -61 -10 -61 -6 0 -10 35 -10 85 0 69 -3 85 -15 85 -12 0 -15 -14
-15 -65 0 -51 -3 -65 -15 -65 -12 0 -15 17 -15 95 0 88 2 98 25 120 32 33 39
31 31 -7z m104 -71 c-23 -22 -43 -37 -46 -35 -2 3 15 34 38 69 42 62 43 63 46
34 3 -24 -4 -37 -38 -68z m-1236 84 c3 -5 0 -11 -8 -14 -15 -6 -26 1 -26 15 0
11 27 10 34 -1z m1226 -5 c0 -8 -4 -17 -9 -20 -10 -7 -23 19 -14 28 11 11 23
6 23 -8z m110 -8 c17 -19 20 -35 20 -115 0 -86 -1 -93 -20 -93 -18 0 -20 7
-20 65 0 37 -4 65 -10 65 -6 0 -10 -35 -10 -85 l0 -85 -55 0 -55 0 0 60 c0 33
4 60 9 60 5 0 32 21 61 47 45 40 51 50 46 75 -7 34 6 36 34 6z m-1642 1 c-4
-13 -56 -22 -70 -13 -17 11 4 24 38 24 22 0 34 -4 32 -11z m794 -16 c18 -16
25 -43 11 -43 -12 0 -43 33 -43 47 0 17 10 17 32 -4z m222 8 c3 -4 -5 -18 -18
-30 -29 -27 -47 -10 -20 20 19 21 30 24 38 10z m191 -48 c4 -21 8 -45 10 -53
3 -8 -2 -24 -10 -34 -15 -20 -15 -20 -29 0 -13 18 -13 36 0 102 7 34 22 26 29
-15z m-1227 2 c-6 -14 -14 -25 -18 -25 -4 0 -12 11 -18 25 -11 24 -10 25 18
25 28 0 29 -1 18 -25z m953 -197 c97 -36 156 -73 230 -147 116 -116 180 -288
165 -443 -16 -154 -72 -266 -189 -375 -276 -257 -748 -178 -919 155 -19 37
-41 90 -49 117 -18 64 -18 236 0 300 51 185 204 338 396 398 76 24 92 26 200
22 75 -2 117 -9 166 -27z m727 14 c2 -7 -6 -12 -17 -12 -21 0 -27 11 -14 24 9
9 26 2 31 -12z m-1808 -2 c0 -5 -7 -10 -15 -10 -8 0 -15 5 -15 10 0 6 7 10 15
10 8 0 15 -4 15 -10z m250 0 c0 -5 -7 -10 -15 -10 -8 0 -15 5 -15 10 0 6 7 10
15 10 8 0 15 -4 15 -10z m1310 0 c0 -5 -7 -10 -15 -10 -8 0 -15 5 -15 10 0 6
7 10 15 10 8 0 15 -4 15 -10z m-1192 -79 c8 -4 12 -19 10 -32 -4 -29 -45 -34
-61 -7 -19 30 19 60 51 39z m-313 -22 c14 -44 96 -42 110 3 9 27 27 22 65 -17
l34 -35 -27 -27 c-22 -22 -27 -24 -27 -10 0 9 -4 17 -10 17 -6 0 -10 -37 -10
-90 l0 -90 -80 0 -80 0 0 85 c0 75 -10 108 -23 73 -3 -9 -11 -4 -25 12 -27 32
-27 32 7 69 34 36 57 40 66 10z m83 9 c-7 -19 -43 -21 -58 -3 -11 13 -8 15 25
15 25 0 35 -4 33 -12z m1662 -22 l0 -24 -132 2 c-130 1 -133 2 -136 24 -3 22
-3 22 132 22 l136 0 0 -24z m-177 -53 c3 -5 8 -23 12 -41 6 -29 4 -34 -14 -39
-12 -3 -21 -9 -21 -14 0 -14 22 -10 41 7 16 14 20 14 48 -7 24 -17 34 -20 43
-11 8 8 5 14 -15 21 -27 11 -36 34 -17 46 6 3 10 15 10 26 0 16 7 19 45 19
l45 0 0 -85 0 -85 -135 0 -135 0 0 85 0 85 44 0 c25 0 47 -3 49 -7z m67 -12
c0 -25 -20 -38 -31 -20 -15 23 -10 39 11 39 13 0 20 -7 20 -19z m-1570 -240
c0 -5 -8 -15 -17 -22 -14 -12 -16 -12 -11 1 5 13 -5 14 -58 12 -41 -3 -64 0
-64 7 0 7 28 11 75 11 41 0 75 -4 75 -9z m30 -36 c0 -8 12 -17 28 -21 46 -10
48 -12 14 -13 -27 -1 -42 4 -81 26 -2 2 2 9 9 18 14 17 30 11 30 -10z m-78
-45 c24 -15 51 -20 101 -20 55 0 67 -3 67 -16 0 -14 -12 -16 -79 -13 -67 4
-83 8 -101 27 -14 14 -32 22 -55 22 -19 0 -35 5 -35 10 0 17 68 11 102 -10z
m-22 -35 c0 -11 -11 -15 -40 -15 -29 0 -40 4 -40 15 0 11 11 15 40 15 29 0 40
-4 40 -15z m30 -74 c0 -19 -31 -32 -72 -29 -57 4 -51 21 9 29 27 3 51 7 56 7
4 1 7 -2 7 -7z m14 -35 c-6 -16 -24 -23 -24 -8 0 10 22 33 27 28 2 -2 1 -11
-3 -20z m36 -3 c0 -5 -4 -15 -10 -23 -11 -18 -25 -7 -17 15 6 15 27 21 27 8z
m-128 -30 c26 -23 23 -43 -7 -43 -27 0 -41 20 -31 45 7 19 15 19 38 -2z m158
10 c0 -5 -4 -15 -10 -23 -11 -18 -25 -7 -17 15 6 15 27 21 27 8z m68 -19 c34
-23 27 -34 -23 -34 -48 0 -55 9 -29 34 19 20 24 20 52 0z m1470 -21 c-4 -22
-38 -30 -49 -11 -15 22 -10 28 22 28 24 0 30 -4 27 -17z m-78 -19 c14 -35 14
-34 -20 -34 -37 0 -37 -6 1 -58 24 -33 28 -45 20 -61 -6 -11 -11 -47 -11 -80
0 -97 -19 -70 -22 31 -2 62 -7 93 -15 96 -10 3 -13 -20 -13 -92 0 -79 -3 -96
-15 -96 -13 0 -15 22 -15 134 l0 135 33 25 c40 32 45 32 57 0z m172 -18 c15
-17 18 -43 18 -149 0 -117 -2 -128 -17 -125 -15 3 -18 15 -18 88 0 118 -19
120 -23 3 l-3 -93 -54 0 -55 0 0 58 c0 54 2 58 34 79 36 23 99 110 90 124 -11
18 -34 9 -34 -14 0 -21 -68 -103 -77 -93 -2 2 7 22 21 45 14 22 26 43 26 46 0
3 7 21 15 41 13 32 16 34 37 23 13 -6 31 -21 40 -33z m-1542 -11 c0 -13 -23
-15 -145 -15 -122 0 -145 2 -145 15 0 13 23 15 145 15 122 0 145 -2 145 -15z
m1430 -9 c0 -8 -4 -18 -10 -21 -5 -3 -10 3 -10 14 0 12 5 21 10 21 6 0 10 -6
10 -14z m-42 -18 c13 -13 16 -48 4 -48 -4 0 -16 14 -25 30 -14 23 -15 30 -5
30 8 0 19 -5 26 -12z m-1478 -132 c0 -3 -4 -8 -10 -11 -5 -3 -10 -1 -10 4 0 6
5 11 10 11 6 0 10 -2 10 -4z m208 -48 c30 -30 -1 -73 -36 -51 -23 14 -25 29
-7 47 20 19 27 20 43 4z m1085 -10 c14 -21 2 -48 -22 -48 -30 0 -45 34 -25 55
18 18 33 16 47 -7z m-1003 -113 c0 -16 59 -48 81 -43 8 2 14 -5 15 -17 3 -58
5 -65 19 -65 20 0 19 -20 -1 -35 -9 -6 -17 -27 -18 -46 -2 -27 -6 -34 -21 -32
-23 2 -75 -24 -75 -37 0 -6 -7 -10 -15 -10 -8 0 -15 6 -15 14 0 14 -38 29 -74
30 -19 1 -36 26 -18 26 7 0 6 11 -1 30 -6 17 -15 30 -19 30 -4 0 -8 7 -8 15 0
8 4 15 9 15 9 0 23 41 25 70 1 8 7 14 14 12 18 -3 69 25 75 43 8 19 27 20 27
0z m-257 -12 c4 -2 7 -15 7 -29 0 -13 5 -24 10 -24 6 0 10 -8 10 -17 0 -13 -9
-8 -36 20 -29 31 -42 37 -76 37 -35 0 -46 -6 -73 -37 -18 -21 -36 -35 -41 -31
-4 5 0 16 8 25 9 10 18 27 20 38 2 12 14 22 33 27 29 6 122 0 138 -9z m1187
-3 c14 -14 20 -33 20 -66 0 -27 -4 -43 -10 -39 -5 3 -10 21 -10 40 0 35 -21
65 -45 65 -20 0 -45 -40 -45 -72 0 -16 -4 -28 -10 -28 -18 0 -11 67 11 94 25
31 61 34 89 6z m250 -12 c0 -13 9 -41 19 -63 l18 -40 21 42 c12 23 22 51 22
63 0 32 43 26 74 -11 23 -28 26 -39 26 -115 0 -46 -4 -84 -9 -84 -5 0 -11 38
-12 84 -3 65 -8 89 -23 105 -24 26 -36 27 -29 1 3 -12 0 -20 -6 -20 -7 0 -9
-5 -6 -10 4 -6 -10 -31 -30 -55 -31 -38 -36 -51 -33 -86 3 -48 22 -65 61 -55
26 6 27 9 27 71 0 74 19 90 21 18 1 -27 1 -54 0 -60 -1 -7 7 -13 19 -13 11 0
20 -7 20 -15 0 -13 -22 -15 -140 -15 -118 0 -140 2 -140 15 0 8 9 15 20 15 17
0 20 7 20 48 0 51 15 88 24 62 3 -8 7 -40 8 -70 2 -43 7 -56 21 -58 15 -3 17
5 17 57 0 33 5 63 10 66 6 4 0 15 -15 27 -17 13 -25 27 -22 39 3 11 1 19 -4
19 -5 0 -9 10 -9 23 -1 21 -1 21 -25 -6 -22 -25 -25 -37 -25 -108 0 -51 -4
-78 -10 -74 -5 3 -10 43 -10 88 0 74 2 83 27 109 33 35 73 38 73 6z m58 0 c-7
-13 -11 -31 -9 -40 1 -10 -3 -18 -8 -18 -6 0 -11 9 -11 21 0 11 -5 29 -10 40
-10 17 -7 19 20 19 29 0 30 -1 18 -22z m-1529 -54 c82 -69 -9 -200 -96 -139
-32 23 -46 80 -28 116 29 54 76 63 124 23z m1093 -21 c3 -33 6 -38 28 -38 21
0 26 6 30 33 3 18 8 33 13 32 4 0 14 0 22 0 9 0 15 -9 15 -24 0 -28 24 -51 45
-42 9 3 15 18 15 41 0 24 5 35 14 35 22 0 24 -7 32 -113 l7 -97 -138 0 -137 0
7 98 c8 106 9 112 30 112 9 0 15 -14 17 -37z m-1242 -57 c0 -27 6 -48 15 -56
21 -17 19 -42 -2 -38 -10 2 -18 11 -18 21 0 10 -6 22 -14 26 -8 5 -11 16 -8
25 4 10 1 19 -8 22 -21 8 -19 42 3 47 27 6 32 -1 32 -47z m232 4 c-1 -25 -8
-49 -15 -55 -7 -5 -16 -18 -20 -27 -7 -20 -22 -23 -32 -8 -3 5 3 15 15 22 16
10 20 23 20 66 0 46 3 53 18 50 14 -3 16 -13 14 -48z m769 34 c16 -15 20 -15
41 0 34 24 55 20 67 -15 6 -18 11 -36 11 -40 0 -5 -43 -9 -96 -9 l-96 0 7 33
c4 17 9 35 12 40 7 12 36 8 54 -9z m-233 -16 c-3 -7 -13 -15 -24 -17 -16 -3
-17 -1 -5 13 16 19 34 21 29 4z m21 -34 c-14 -18 -24 -11 -15 11 3 9 11 13 16
10 8 -5 7 -11 -1 -21z m921 -8 c0 -3 -4 -8 -10 -11 -5 -3 -10 -1 -10 4 0 6 5
11 10 11 6 0 10 -2 10 -4z m-583 -53 c3 -8 -25 -13 -97 -15 -99 -3 -118 1
-105 22 9 15 197 9 202 -7z m-260 -5 c-3 -10 -37 -13 -127 -13 -90 0 -124 3
-128 13 -3 9 27 12 128 12 101 0 131 -3 127 -12z m833 2 c0 -5 -2 -10 -4 -10
-3 0 -8 5 -11 10 -3 6 -1 10 4 10 6 0 11 -4 11 -10z m-950 -74 c0 -7 14 -19
31 -26 18 -8 37 -27 47 -47 9 -18 19 -33 24 -33 11 0 10 -18 -2 -33 -5 -7 -21
-27 -36 -44 -14 -18 -32 -33 -40 -33 -8 0 -17 -7 -20 -15 -7 -18 -34 -20 -34
-2 0 6 -15 19 -33 27 -17 8 -38 27 -45 43 -7 15 -17 27 -23 27 -12 0 -12 18 1
33 5 7 21 26 35 44 14 18 35 35 45 38 11 4 20 13 20 21 0 8 7 14 15 14 8 0 15
-6 15 -14z m216 -28 c3 -13 13 -31 21 -40 12 -14 14 -25 6 -56 -8 -32 -7 -42
9 -62 10 -12 20 -21 21 -19 1 2 10 13 19 24 13 16 15 29 9 62 -6 31 -5 46 4
53 7 6 16 22 19 35 4 16 13 25 26 25 19 0 20 -7 20 -115 l0 -115 -100 0 -100
0 0 115 c0 107 1 115 19 115 12 0 22 -9 27 -22z m84 8 c0 -7 -7 -19 -15 -26
-12 -10 -18 -10 -30 0 -25 21 -18 40 15 40 19 0 30 -5 30 -14z m-912 -63 l-3
-68 -90 0 -90 0 -3 68 -3 67 96 0 96 0 -3 -67z m318 11 c17 6 17 1 4 -25 -13
-24 -3 -25 23 -1 19 17 20 16 13 -11 -6 -26 -5 -27 15 -17 18 10 25 9 42 -9
l21 -21 -132 0 -132 0 0 50 c0 28 2 50 5 50 3 0 19 -10 36 -22 l29 -22 28 27
c22 22 28 25 30 12 2 -10 10 -14 18 -11z m822 -17 c9 4 26 12 37 20 28 19 37
16 29 -9 -6 -20 -5 -21 10 -9 22 18 34 5 18 -19 -10 -16 -10 -20 2 -20 8 0 16
5 18 10 4 13 68 -17 68 -31 0 -5 -59 -9 -135 -9 l-135 0 0 48 c0 27 3 52 6 55
4 4 20 -4 36 -18 18 -15 35 -22 46 -18z m-1043 3 c8 -16 15 -51 15 -77 l0 -48
-23 29 c-18 22 -29 28 -45 24 -21 -6 -22 -3 -22 48 0 53 0 54 30 54 23 0 33
-7 45 -30z m1485 -34 c0 -3 -4 -8 -10 -11 -5 -3 -10 -1 -10 4 0 6 5 11 10 11
6 0 10 -2 10 -4z m-1742 -68 c-6 -18 -28 -21 -28 -4 0 9 7 16 16 16 9 0 14 -5
12 -12z m67 -8 c8 -26 -1 -40 -26 -40 -25 0 -35 25 -19 45 17 21 37 19 45 -5z
m95 5 c0 -10 -10 -15 -34 -15 -21 0 -36 6 -40 15 -4 12 3 15 34 15 29 0 40 -4
40 -15z m69 1 c15 -18 3 -46 -19 -46 -10 0 -21 7 -24 16 -6 16 9 44 24 44 4 0
13 -6 19 -14z m361 -8 c0 -10 -34 -14 -130 -15 -108 -2 -130 0 -130 12 0 12
23 15 130 15 97 0 130 -3 130 -12z m890 -3 c0 -13 -22 -15 -135 -15 -113 0
-135 2 -135 15 0 13 22 15 135 15 113 0 135 -2 135 -15z m330 -5 c0 -5 -12
-10 -27 -10 -22 0 -25 2 -13 10 20 13 40 13 40 0z"/>
<path d="M1687 2233 c-4 -3 -2 -12 4 -20 9 -10 15 -10 25 -2 8 6 14 15 14 20
0 10 -34 12 -43 2z"/>
<path d="M420 2010 c0 -5 9 -10 20 -10 11 0 20 5 20 10 0 6 -9 10 -20 10 -11
0 -20 -4 -20 -10z"/>
<path d="M520 2010 c0 -5 5 -10 11 -10 5 0 7 5 4 10 -3 6 -8 10 -11 10 -2 0
-4 -4 -4 -10z"/>
<path d="M833 1973 c9 -2 23 -2 30 0 6 3 -1 5 -18 5 -16 0 -22 -2 -12 -5z"/>
<path d="M2066 2041 c-4 -7 -5 -15 -2 -18 9 -9 19 4 14 18 -4 11 -6 11 -12 0z"/>
<path d="M2020 2030 c0 -5 5 -10 10 -10 6 0 10 5 10 10 0 6 -4 10 -10 10 -5 0
-10 -4 -10 -10z"/>
<path d="M2020 1984 c0 -8 5 -12 10 -9 6 4 8 11 5 16 -9 14 -15 11 -15 -7z"/>
<path d="M2060 1985 c0 -8 5 -15 10 -15 6 0 10 7 10 15 0 8 -4 15 -10 15 -5 0
-10 -7 -10 -15z"/>
<path d="M1128 1895 c-98 -27 -178 -73 -247 -142 -205 -208 -203 -523 3 -721
104 -100 231 -152 371 -152 188 0 350 84 448 233 197 299 37 691 -318 782 -71
18 -192 18 -257 0z m166 -137 c13 -19 14 -25 2 -43 -26 -39 -76 -26 -76 19 0
46 48 62 74 24z m294 -40 c21 -21 14 -66 -13 -84 -23 -15 -27 -15 -50 0 -30
20 -34 69 -7 85 23 14 55 14 70 -1z m-368 -58 c0 -5 -22 -35 -50 -68 -27 -33
-50 -67 -50 -75 0 -35 -51 -45 -64 -12 -3 8 27 51 67 98 53 63 75 82 85 75 6
-6 12 -14 12 -18z m189 -65 c33 -38 61 -75 61 -82 0 -7 -8 -17 -19 -22 -22
-12 -58 9 -47 27 4 6 -18 38 -49 72 -59 64 -62 69 -43 88 14 14 7 20 97 -83z
m-387 -74 c-3 -31 1 -42 18 -54 21 -14 21 -15 -7 -20 -15 -3 -60 -3 -100 0
l-73 6 0 48 c0 28 5 49 13 52 6 3 44 6 82 6 l71 1 -4 -39z m335 5 c1 -16 12
-39 24 -52 l22 -24 -148 0 -148 0 27 21 c14 11 26 30 26 43 0 39 19 47 110 44
l85 -3 2 -29z m292 20 c7 -8 11 -32 9 -53 l-3 -38 -93 -3 -93 -3 22 30 c15 21
20 37 15 55 l-6 26 69 0 c47 0 72 -4 80 -14z m-49 -149 c0 -38 -53 -275 -66
-295 -28 -42 -63 -48 -296 -44 -270 4 -252 -7 -292 184 -15 73 -30 141 -32
151 -5 16 16 17 340 17 280 0 346 -3 346 -13z"/>
<path d="M1524 1696 c-8 -22 2 -46 21 -46 20 0 19 16 -2 25 -17 7 -16 8 2 15
15 5 22 2 27 -14 6 -19 7 -18 5 4 -2 29 -43 42 -53 16z"/>
<path d="M1067 1354 c-4 -4 -7 -56 -7 -116 0 -89 3 -108 15 -108 21 0 28 42
22 132 -5 76 -15 107 -30 92z"/>
<path d="M1157 1354 c-4 -4 -7 -56 -7 -116 0 -99 2 -109 18 -106 15 3 17 16
17 112 0 102 -7 130 -28 110z"/>
<path d="M1246 1353 c-3 -4 -6 -55 -6 -115 0 -99 2 -109 18 -106 15 3 17 18
20 109 2 85 0 108 -12 112 -8 3 -17 3 -20 0z"/>
<path d="M1335 1348 c-3 -8 -4 -59 -3 -114 2 -80 6 -99 18 -99 12 0 15 19 15
109 0 79 -4 111 -12 113 -7 3 -15 -2 -18 -9z"/>
<path d="M1425 1348 c-3 -8 -4 -59 -3 -114 3 -85 5 -99 21 -102 16 -3 17 6 15
109 -2 79 -7 114 -15 117 -7 2 -15 -3 -18 -10z"/>
<path d="M520 1650 c-9 -16 -8 -20 5 -20 8 0 15 9 15 20 0 11 -2 20 -5 20 -2
0 -9 -9 -15 -20z"/>
<path d="M2066 1041 c-4 -5 -2 -12 3 -15 5 -4 12 -2 15 3 4 5 2 12 -3 15 -5 4
-12 2 -15 -3z"/>
<path d="M2020 1030 c0 -5 5 -10 10 -10 6 0 10 5 10 10 0 6 -4 10 -10 10 -5 0
-10 -4 -10 -10z"/>
<path d="M2066 991 c-4 -5 -2 -12 3 -15 5 -4 12 -2 15 3 4 5 2 12 -3 15 -5 4
-12 2 -15 -3z"/>
<path d="M2025 980 c3 -5 8 -10 11 -10 2 0 4 5 4 10 0 6 -5 10 -11 10 -5 0 -7
-4 -4 -10z"/>
<path d="M740 789 c-34 -34 -35 -40 -18 -57 10 -10 10 -14 0 -21 -16 -10 -5
-41 15 -41 8 0 12 -4 8 -9 -3 -6 3 -15 14 -20 34 -19 78 -12 111 15 26 22 30
31 25 55 -4 17 -2 29 3 29 6 0 8 9 5 20 -3 11 -12 20 -19 20 -8 0 -14 6 -14
14 0 17 -21 24 -67 24 -23 1 -42 -8 -63 -29z m110 -26 c37 -47 4 -111 -50 -98
-50 12 -66 69 -30 105 27 27 55 25 80 -7z"/>
<path d="M787 753 c-13 -13 -7 -51 10 -57 23 -9 47 17 38 43 -6 20 -34 28 -48
14z"/>
<path d="M441 756 c-45 -48 5 -115 64 -88 34 16 36 74 3 96 -30 22 -41 20 -67
-8z m59 -36 c0 -24 -26 -38 -42 -22 -16 16 -2 42 22 42 13 0 20 -7 20 -20z"/>
<path d="M1780 631 c0 -5 7 -11 15 -15 8 -3 15 -1 15 3 0 5 -7 11 -15 15 -8 3
-15 1 -15 -3z"/>
<path d="M1064 486 c-10 -11 -20 -38 -21 -59 -2 -33 0 -38 16 -32 14 4 19 1
17 -12 -2 -27 74 -30 81 -3 3 11 11 16 19 13 10 -4 13 6 11 44 -1 32 -6 47
-14 46 -7 -2 -13 3 -13 11 0 24 -74 18 -96 -8z m96 -52 c0 -22 -41 -44 -60
-34 -28 15 -30 37 -8 65 l20 26 24 -22 c13 -12 24 -28 24 -35z"/>
<path d="M1105 450 c-7 -12 2 -30 16 -30 12 0 12 27 0 35 -5 3 -12 1 -16 -5z"/>
<path d="M560 455 c0 -20 5 -25 25 -25 23 0 24 2 13 25 -6 14 -17 25 -25 25
-7 0 -13 -11 -13 -25z"/>
<path d="M390 350 c0 -5 5 -10 10 -10 6 0 10 5 10 10 0 6 -4 10 -10 10 -5 0
-10 -4 -10 -10z"/>
<path d="M560 350 c0 -5 5 -10 10 -10 6 0 10 5 10 10 0 6 -4 10 -10 10 -5 0
-10 -4 -10 -10z"/>
</g>
</svg>
